<svg width="70" height="99" viewBox="0 0 70 99" fill="none" xmlns="http://www.w3.org/2000/svg">
<path d="M62.802 29.8283C62.802 30.5829 62.7545 31.3247 62.6621 32.0542C61.5678 40.5864 54.2779 47.1825 45.4467 47.1825C35.8625 47.1825 28.093 39.413 28.093 29.8283C28.093 21.8345 33.4993 15.1016 40.8554 13.0888C42.3182 12.6877 43.8568 12.4746 45.4467 12.4746C55.0325 12.4746 62.802 20.2441 62.802 29.8283Z" fill="#EFB025"/>
<path d="M62.8021 29.8283C62.8021 30.5829 62.7545 31.3247 62.6622 32.0543C61.1994 32.4537 59.6591 32.6684 58.0687 32.6684C48.4845 32.6684 40.715 24.8989 40.715 15.3147C40.715 14.5601 40.7631 13.8167 40.8555 13.0888C42.3183 12.6877 43.8569 12.4746 45.4468 12.4746C55.0326 12.4746 62.8021 20.2441 62.8021 29.8283Z" fill="#FFC73B"/>
<path d="M45.4473 10.0547C44.8667 10.0547 44.3957 9.58421 44.3957 9.00315V2.69219C44.3957 2.11166 44.8667 1.64062 45.4473 1.64062C46.0283 1.64062 46.4994 2.11166 46.4994 2.69219V9.00315C46.4994 9.58421 46.0283 10.0547 45.4473 10.0547Z" fill="#FFC73B"/>
<path d="M35.0358 12.8451C34.6727 12.8451 34.3191 12.6566 34.1242 12.319L30.969 6.85402C30.6784 6.35094 30.8504 5.7074 31.3535 5.41687C31.8566 5.12634 32.5001 5.29884 32.7907 5.80192L35.9459 11.2669C36.2364 11.77 36.0639 12.4136 35.5608 12.7041C35.3953 12.7997 35.2142 12.8451 35.0358 12.8451Z" fill="#FFC73B"/>
<path d="M27.4111 20.4678C27.2327 20.4678 27.0522 20.4224 26.8861 20.3268L21.4211 17.1716C20.918 16.881 20.7455 16.2375 21.036 15.7344C21.326 15.2313 21.9696 15.0588 22.4726 15.3494L27.9382 18.5051C28.4413 18.7956 28.6138 19.4386 28.3233 19.9417C28.1283 20.2793 27.7748 20.4678 27.4111 20.4678Z" fill="#FFC73B"/>
<path d="M68.9475 42.3444C68.8086 42.3444 68.6671 42.3166 68.5314 42.2584L64.4683 40.5057C63.9353 40.2755 63.6891 39.6565 63.9193 39.123C64.1495 38.59 64.769 38.3438 65.302 38.574L69.3646 40.3267C69.8981 40.5569 70.1437 41.1759 69.9136 41.7094C69.7421 42.1068 69.3549 42.3444 68.9475 42.3444Z" fill="#FFC73B"/>
<path d="M20.4149 30.8803H18.3118C17.7307 30.8803 17.2597 30.4092 17.2597 29.8282C17.2597 29.2477 17.7307 28.7766 18.3118 28.7766H20.4149C20.9954 28.7766 21.4665 29.2477 21.4665 29.8282C21.4665 30.4092 20.9954 30.8803 20.4149 30.8803Z" fill="#FFC73B"/>
<path d="M68.7194 30.8803H66.2729C65.6918 30.8803 65.2208 30.4092 65.2208 29.8282C65.2208 29.2477 65.6918 28.7766 66.2729 28.7766H68.7194C69.3005 28.7766 69.771 29.2477 69.771 29.8282C69.771 30.4092 69.3005 30.8803 68.7194 30.8803Z" fill="#FFC73B"/>
<path d="M63.484 20.4678C63.1203 20.4678 62.7668 20.2793 62.5719 19.9417C62.2813 19.4387 62.4538 18.7956 62.9569 18.5051L68.4219 15.3494C68.925 15.0594 69.568 15.2313 69.8591 15.7344C70.1491 16.2375 69.9771 16.881 69.474 17.1716L64.0085 20.3268C63.8435 20.4224 63.6624 20.4678 63.484 20.4678Z" fill="#FFC73B"/>
<path d="M55.8593 12.8451C55.6809 12.8451 55.4999 12.7997 55.3343 12.7041C54.8312 12.4136 54.6587 11.77 54.9492 11.2669L58.1045 5.80192C58.395 5.29884 59.0385 5.12634 59.5416 5.41687C60.0447 5.7074 60.2167 6.35094 59.9267 6.85402L56.7709 12.319C56.5765 12.6566 56.223 12.8451 55.8593 12.8451Z" fill="#FFC73B"/>
<path d="M68.5207 53.1217C68.5207 61.5181 61.7131 68.3242 53.3182 68.3242H12.5183C5.60441 68.3242 0 62.7198 0 55.8058C0 48.8919 5.60441 43.2865 12.5183 43.2865C13.0065 43.2865 13.4871 43.3142 13.9597 43.3692C14.0933 43.3847 14.2252 43.4013 14.3565 43.421C16.574 34.953 24.2414 28.6896 33.384 28.6057C33.4454 28.6041 33.5073 28.6041 33.5704 28.6041C40.7705 28.6041 47.0746 32.4355 50.5582 38.1691C51.4528 38.0046 52.3756 37.9192 53.3182 37.9192C57.7723 37.9192 61.7788 39.8348 64.5585 42.8864H64.5601C67.02 45.5877 68.5207 49.1792 68.5207 53.1217Z" fill="#939090"/>
<path d="M64.5585 42.887C50.2228 38.904 42.7129 48.5512 42.7129 48.5512C42.7129 43.5022 45.4473 38.1691 50.5582 38.1691C51.4527 38.0052 52.3756 37.9192 53.3182 37.9192C57.7723 37.9192 61.7788 39.8349 64.5585 42.887Z" fill="#777575"/>
<path d="M15.7873 68.3242H12.5183C5.60441 68.3242 0 62.7203 0 55.8059C0 48.892 5.60441 43.2865 12.5183 43.2865C13.0065 43.2865 13.4871 43.3148 13.9597 43.3693C14.0933 43.3848 14.2252 43.4013 14.3565 43.4211C7.37267 43.4211 0.221634 64.1169 15.7873 68.3242Z" fill="#777575"/>
<path d="M21.467 49.3923C21.467 49.3923 19.8696 43.5556 14.3565 43.421C16.574 34.953 24.2414 28.6896 33.384 28.6057C25.1782 28.7868 20.2146 40.8319 21.467 49.3923Z" fill="#777575"/>
<path d="M13.9597 43.3693C14.0933 43.3847 14.2252 43.4013 14.3566 43.4211C14.2193 43.4184 14.0863 43.4002 13.9597 43.3693Z" fill="#939090"/>
<path d="M6.354 91.216C5.598 91.216 4.914 91.09 4.302 90.838C3.69 90.586 3.186 90.25 2.79 89.83C2.406 89.41 2.082 88.912 1.818 88.336C1.554 87.76 1.362 87.172 1.242 86.572C1.134 85.972 1.08 85.348 1.08 84.7C1.08 83.932 1.176 83.182 1.368 82.45C1.56 81.718 1.854 81.028 2.25 80.38C2.646 79.72 3.198 79.192 3.906 78.796C4.614 78.388 5.43 78.184 6.354 78.184C7.47 78.184 8.406 78.448 9.162 78.976C9.918 79.492 10.446 80.122 10.746 80.866L8.802 81.748C8.466 81.232 8.112 80.854 7.74 80.614C7.38 80.374 6.918 80.254 6.354 80.254C5.802 80.254 5.316 80.392 4.896 80.668C4.488 80.932 4.17 81.292 3.942 81.748C3.726 82.192 3.564 82.666 3.456 83.17C3.36 83.662 3.312 84.172 3.312 84.7C3.312 85.876 3.57 86.908 4.086 87.796C4.614 88.684 5.37 89.128 6.354 89.128C7.314 89.128 8.118 88.588 8.766 87.508L10.764 88.264C9.888 90.232 8.418 91.216 6.354 91.216ZM13.0416 91V78.994L15.1476 78.004V91H13.0416ZM21.7058 91.216C20.4098 91.216 19.3838 90.79 18.6278 89.938C17.8718 89.086 17.4938 87.91 17.4938 86.41C17.4938 84.91 17.8718 83.734 18.6278 82.882C19.3838 82.018 20.4098 81.586 21.7058 81.586C23.0018 81.586 24.0278 82.018 24.7838 82.882C25.5518 83.734 25.9358 84.91 25.9358 86.41C25.9358 87.91 25.5578 89.086 24.8018 89.938C24.0458 90.79 23.0138 91.216 21.7058 91.216ZM21.7058 89.2C22.3658 89.2 22.8818 88.954 23.2538 88.462C23.6378 87.97 23.8298 87.286 23.8298 86.41C23.8298 85.534 23.6378 84.844 23.2538 84.34C22.8818 83.836 22.3658 83.584 21.7058 83.584C21.0698 83.584 20.5598 83.842 20.1758 84.358C19.7918 84.862 19.5998 85.546 19.5998 86.41C19.5998 87.274 19.7858 87.958 20.1578 88.462C20.5418 88.954 21.0578 89.2 21.7058 89.2ZM33.7898 91V90.118C33.2138 90.85 32.4098 91.216 31.3778 91.216C30.4178 91.216 29.6318 90.916 29.0198 90.316C28.4078 89.704 28.1018 88.744 28.1018 87.436V81.802H30.2078V87.058C30.2078 88.486 30.7838 89.2 31.9358 89.2C33.1718 89.2 33.7898 88.498 33.7898 87.094V81.802H35.8958V91H33.7898ZM41.964 91.216C40.788 91.216 39.858 90.79 39.174 89.938C38.49 89.086 38.148 87.904 38.148 86.392C38.148 84.916 38.502 83.746 39.21 82.882C39.918 82.018 40.836 81.586 41.964 81.586C42.852 81.586 43.542 81.874 44.034 82.45V78.958L46.14 78.004V91H44.034V90.334C43.578 90.922 42.888 91.216 41.964 91.216ZM42.288 89.2C43.068 89.2 43.65 88.906 44.034 88.318V84.466C43.638 83.878 43.056 83.584 42.288 83.584C41.64 83.584 41.136 83.83 40.776 84.322C40.428 84.802 40.254 85.492 40.254 86.392C40.254 87.244 40.434 87.928 40.794 88.444C41.154 88.948 41.652 89.2 42.288 89.2ZM49.9801 94.492L51.4021 90.856L47.9461 81.802H50.0701L52.2121 87.454C52.3201 87.718 52.4101 87.994 52.4821 88.282C52.5421 88.018 52.6261 87.742 52.7341 87.454L54.8941 81.802H57.0181L52.1581 94.492H49.9801Z" fill="white"/>
</svg>
