<svg width="66" height="99" viewBox="0 0 66 99" fill="none" xmlns="http://www.w3.org/2000/svg">
<path d="M47.0178 7.73743C43.1109 7.73743 39.4721 9.84604 37.5215 13.2402L37.4853 13.3034L37.5507 13.3355C40.6419 14.8534 42.9096 17.7633 43.617 21.1197L43.6479 21.2569L43.6608 21.2411C43.7958 21.5807 44.2964 22.4995 45.6781 22.2032C46.5282 21.9343 47.4129 21.7979 48.3077 21.7979C51.1479 21.7979 53.8202 23.1891 55.456 25.5193L55.5083 25.5939L55.5651 25.5228C61.2531 18.4216 56.2176 7.73743 47.0178 7.73743Z" fill="#F6B138"/>
<path d="M47.0178 5.10658C46.4526 5.10658 45.9943 4.64844 45.9943 4.08311V1.02348C45.9943 0.458145 46.4526 0 47.0178 0C47.583 0 48.0412 0.458145 48.0412 1.02348V4.08311C48.0412 4.64844 47.583 5.10658 47.0178 5.10658Z" fill="#F6B138"/>
<path d="M38.8542 6.54493L37.3243 3.89518C37.0417 3.40573 37.2093 2.77983 37.6989 2.4971C38.1881 2.21464 38.8142 2.38212 39.097 2.87171L40.6269 5.52145C40.9095 6.01091 40.7418 6.63681 40.2522 6.91954C39.7658 7.20036 39.1385 7.03739 38.8542 6.54493Z" fill="#F6B138"/>
<path d="M61.7607 28.3314L59.1108 26.8013C58.6212 26.5188 58.4536 25.8927 58.7362 25.4033C59.0188 24.9137 59.6447 24.7461 60.1343 25.0287L62.7842 26.5587C63.2738 26.8413 63.4414 27.4673 63.1588 27.9568C62.8752 28.4477 62.2489 28.6131 61.7607 28.3314Z" fill="#F6B138"/>
<path d="M64.6322 19.6613H61.5724C61.0072 19.6613 60.549 19.2032 60.549 18.6379C60.549 18.0725 61.0072 17.6144 61.5724 17.6144H64.6322C65.1974 17.6144 65.6557 18.0725 65.6557 18.6379C65.6557 19.2032 65.1975 19.6613 64.6322 19.6613Z" fill="#F6B138"/>
<path d="M58.7362 11.8723C58.4536 11.3828 58.6214 10.757 59.1108 10.4742L61.7607 8.94433C62.2501 8.66187 62.876 8.82949 63.1588 9.31894C63.4415 9.8084 63.2736 10.4343 62.7842 10.717L60.1343 12.2469C59.6469 12.5281 59.0202 12.3639 58.7362 11.8723Z" fill="#F6B138"/>
<path d="M53.7834 6.91948C53.2938 6.63688 53.1262 6.01085 53.4088 5.52139L54.9387 2.87165C55.2213 2.38206 55.8472 2.21444 56.3368 2.49704C56.8264 2.77963 56.994 3.40567 56.7114 3.89512L55.1815 6.54487C54.8981 7.03583 54.2716 7.20126 53.7834 6.91948Z" fill="#F6B138"/>
<path d="M44.0882 15.9858C44.0882 12.5878 45.8159 9.59391 48.4404 7.83297C43.9435 7.24631 39.6793 9.48563 37.5216 13.2402L37.4854 13.3034L37.5507 13.3355C40.6419 14.8533 42.9097 17.7633 43.6171 21.1197L43.6479 21.2568L43.6608 21.2411C43.7959 21.5807 44.2964 22.4995 45.6781 22.2032C45.8494 22.1491 46.0223 22.1018 46.1961 22.0583C44.8773 20.3876 44.0882 18.2795 44.0882 15.9858Z" fill="#F2902F"/>
<path d="M48.3079 21.7298C47.3839 21.7298 46.494 21.8738 45.6576 22.1385C44.0334 22.4864 43.6854 21.1039 43.6854 21.1039L43.6839 21.1057C41.7037 11.7104 29.6248 8.91557 23.6899 16.444C19.274 12.6263 12.2909 15.7907 12.3895 21.7315C7.56335 21.7699 3.66249 25.6925 3.66249 30.5278C3.66249 35.3868 7.6015 39.3259 12.4606 39.3259H12.5887C16.5362 42.6058 21.7739 43.273 26.1937 41.5911C32.8097 44.2008 40.5969 43.571 46.8804 39.3259H48.3079C53.1669 39.3259 57.106 35.3869 57.106 30.5278C57.106 25.6688 53.167 21.7298 48.3079 21.7298Z" fill="#91CBF2"/>
<path d="M5.90166 45.0847C5.34782 44.9715 4.99057 44.431 5.1035 43.8772L5.17172 43.5429C5.28493 42.9891 5.82565 42.6317 6.37922 42.7448C6.93307 42.858 7.29032 43.3984 7.17739 43.9523L7.10916 44.2865C6.99596 44.8409 6.45483 45.1978 5.90166 45.0847Z" fill="#91CBF2"/>
<path d="M1.60365 66.1362C1.0498 66.023 0.692551 65.4826 0.805481 64.9287L0.948762 64.227C1.06183 63.6731 1.60255 63.3152 2.15626 63.4288C2.71011 63.542 3.06736 64.0825 2.95443 64.6363L2.81115 65.3381C2.69794 65.8928 2.15654 66.2493 1.60365 66.1362ZM2.4632 61.926C1.90935 61.8128 1.5521 61.2723 1.66503 60.7185L1.80831 60.0167C1.92138 59.463 2.46224 59.1055 3.01581 59.2185C3.56966 59.3318 3.92691 59.8722 3.81398 60.426L3.6707 61.1278C3.55749 61.6825 3.01609 62.0391 2.4632 61.926ZM3.32275 57.7155C2.76904 57.6023 2.41165 57.0617 2.52472 56.508L2.66786 55.8063C2.78107 55.2523 3.32179 54.8945 3.87536 55.0082C4.42908 55.1214 4.78646 55.6619 4.67339 56.2157L4.53025 56.9173C4.41691 57.4729 3.87509 57.8284 3.32275 57.7155ZM4.18243 53.5052C3.62859 53.392 3.27134 52.8516 3.38427 52.2977L3.52755 51.5959C3.64062 51.0422 4.18107 50.6848 4.73505 50.7978C5.2889 50.911 5.64615 51.4514 5.53322 52.0053L5.38994 52.707C5.27673 53.2617 4.73546 53.6183 4.18243 53.5052ZM5.04212 49.2951C4.48827 49.1819 4.13103 48.6414 4.24396 48.0876L4.38724 47.3858C4.50031 46.832 5.04089 46.4742 5.59474 46.5877C6.14859 46.7009 6.50583 47.2413 6.3929 47.7952L6.24962 48.4969C6.13642 49.0515 5.59501 49.408 5.04212 49.2951Z" fill="#91CBF2"/>
<path d="M0.819008 69.9793C0.26516 69.8661 -0.092086 69.3256 0.0208437 68.7718L0.0890662 68.4375C0.202269 67.8836 0.742719 67.5261 1.29657 67.6393C1.85041 67.7525 2.20766 68.293 2.09473 68.8468L2.02651 69.1811C1.9133 69.7356 1.37217 70.0923 0.819008 69.9793Z" fill="#91CBF2"/>
<path d="M14.9146 49.1653C14.3632 49.0408 14.0172 48.4929 14.1417 47.9415L14.2169 47.6087C14.3415 47.0573 14.8894 46.7105 15.4407 46.836C15.9921 46.9604 16.3381 47.5084 16.2135 48.0598L16.1383 48.3925C16.0134 48.9456 15.4639 49.2897 14.9146 49.1653Z" fill="#91CBF2"/>
<path d="M11.0863 66.1113C10.5349 65.9867 10.189 65.4389 10.3136 64.8874L10.4731 64.1814C10.5977 63.6303 11.1457 63.2842 11.6969 63.4088C12.2483 63.5333 12.5942 64.0812 12.4696 64.6327L12.3101 65.3387C12.1855 65.8897 11.6377 66.2361 11.0863 66.1113ZM12.0432 61.8748C11.4918 61.7502 11.1459 61.2024 11.2705 60.6509L11.43 59.9449C11.5546 59.3938 12.1026 59.0479 12.6538 59.1723C13.2052 59.2968 13.5511 59.8447 13.4265 60.3962L13.267 61.1022C13.1426 61.6532 12.5946 61.9996 12.0432 61.8748ZM13.0004 57.6382C12.449 57.5136 12.1031 56.9658 12.2277 56.4142L12.3872 55.7082C12.5118 55.1571 13.0597 54.8114 13.611 54.9356C14.1624 55.0602 14.5083 55.608 14.3837 56.1595L14.2242 56.8656C14.0996 57.4165 13.5518 57.763 13.0004 57.6382ZM13.9574 53.4016C13.406 53.2771 13.0601 52.7293 13.1847 52.1777L13.3442 51.4717C13.4688 50.9205 14.0168 50.5748 14.568 50.6991C15.1194 50.8237 15.4653 51.3715 15.3407 51.923L15.1812 52.629C15.0566 53.18 14.5088 53.5265 13.9574 53.4016Z" fill="#91CBF2"/>
<path d="M10.2136 69.9747C9.66225 69.8503 9.31621 69.3023 9.44077 68.7509L9.51596 68.4182C9.64051 67.8668 10.1885 67.5199 10.7397 67.6454C11.2911 67.7698 11.6372 68.3178 11.5126 68.8692L11.4374 69.202C11.3124 69.7549 10.7631 70.0991 10.2136 69.9747Z" fill="#91CBF2"/>
<path d="M24.3297 49.1653C23.7783 49.0408 23.4323 48.4929 23.5568 47.9415L23.632 47.6087C23.7566 47.0573 24.3044 46.7105 24.8558 46.836C25.4072 46.9604 25.7532 47.5084 25.6287 48.0598L25.5535 48.3925C25.4287 48.9456 24.8792 49.2897 24.3297 49.1653Z" fill="#91CBF2"/>
<path d="M20.5015 66.1113C19.9501 65.9867 19.6042 65.4389 19.7287 64.8874L19.8883 64.1814C20.0128 63.6303 20.5604 63.2842 21.112 63.4088C21.6634 63.5333 22.0093 64.0812 21.8848 64.6327L21.7252 65.3387C21.6008 65.8897 21.0528 66.2361 20.5015 66.1113ZM21.685 61.9002C21.0293 61.9002 20.541 61.292 20.6859 60.6509L20.8454 59.9449C20.97 59.3938 21.5175 59.0479 22.0692 59.1723C22.6206 59.2968 22.9665 59.8447 22.8419 60.3962L22.6824 61.1022C22.5749 61.5774 22.1526 61.9002 21.685 61.9002ZM22.6421 57.6636C21.9864 57.6636 21.498 57.0553 21.6429 56.4142L21.8025 55.7082C21.927 55.1571 22.4751 54.8114 23.0262 54.9356C23.5776 55.0602 23.9235 55.608 23.799 56.1595L23.6394 56.8656C23.532 57.3408 23.1098 57.6636 22.6421 57.6636ZM23.3726 53.4016C22.8212 53.2771 22.4753 52.7293 22.5998 52.1777L22.7594 51.4717C22.8839 50.9205 23.432 50.5748 23.9831 50.6991C24.5345 50.8237 24.8804 51.3715 24.7559 51.923L24.5963 52.629C24.4719 53.18 23.9239 53.5265 23.3726 53.4016Z" fill="#91CBF2"/>
<path d="M19.6288 69.9747C19.0774 69.8503 18.7313 69.3023 18.8559 68.7509L18.9311 68.4182C19.0556 67.8668 19.6033 67.5199 20.1548 67.6454C20.7062 67.7698 21.0523 68.3178 20.9277 68.8692L20.8525 69.202C20.7277 69.7549 20.1782 70.0991 19.6288 69.9747Z" fill="#91CBF2"/>
<path d="M33.9714 49.1908C33.3154 49.1908 32.8273 48.5824 32.9723 47.9415L33.0474 47.6087C33.1721 47.0574 33.7204 46.711 34.2714 46.8361C34.8226 46.9606 35.1686 47.5086 35.044 48.06L34.9688 48.3928C34.8613 48.8682 34.4391 49.1908 33.9714 49.1908Z" fill="#91CBF2"/>
<path d="M29.9169 66.1113C29.3655 65.9867 29.0196 65.4389 29.1441 64.8874L29.3037 64.1814C29.4282 63.6303 29.9759 63.2842 30.5274 63.4088C31.0788 63.5333 31.4247 64.0812 31.3002 64.6327L31.1406 65.3387C31.0161 65.8897 30.4682 66.2361 29.9169 66.1113ZM30.8739 61.8748C30.3225 61.7502 29.9766 61.2024 30.1012 60.6509L30.2607 59.9449C30.3853 59.3938 30.933 59.0479 31.4845 59.1723C32.0359 59.2968 32.3818 59.8447 32.2572 60.3962L32.0977 61.1022C31.9731 61.6532 31.4253 61.9996 30.8739 61.8748ZM31.8309 57.6382C31.2795 57.5136 30.9336 56.9658 31.0582 56.4142L31.2177 55.7082C31.3423 55.1571 31.89 54.8114 32.4415 54.9356C32.9929 55.0602 33.3388 55.608 33.2142 56.1595L33.0547 56.8656C32.9303 57.4165 32.3823 57.763 31.8309 57.6382ZM32.788 53.4016C32.2366 53.2771 31.8907 52.7293 32.0152 52.1777L32.1748 51.4717C32.2993 50.9205 32.847 50.5748 33.3985 50.6991C33.9499 50.8237 34.2958 51.3715 34.1713 51.923L34.0117 52.629C33.8872 53.18 33.3393 53.5265 32.788 53.4016Z" fill="#91CBF2"/>
<path d="M29.0442 69.9747C28.4928 69.8503 28.1468 69.3023 28.2713 68.7509L28.3465 68.4182C28.4711 67.8668 29.019 67.5199 29.5703 67.6454C30.1217 67.7698 30.4677 68.3178 30.3432 68.8692L30.268 69.202C30.143 69.7549 29.5937 70.0991 29.0442 69.9747Z" fill="#91CBF2"/>
<path d="M42.9036 49.1687C42.3507 49.0509 41.9981 48.5073 42.116 47.9544L42.1871 47.6208C42.3051 47.0679 42.8481 46.7156 43.4014 46.8332C43.9543 46.951 44.3069 47.4946 44.1891 48.0475L44.118 48.3811C44.0008 48.9307 43.4599 49.2873 42.9036 49.1687Z" fill="#91CBF2"/>
<path d="M39.2945 66.1135C38.7416 65.9958 38.389 65.4522 38.5068 64.8993L38.6571 64.1933C38.7749 63.6404 39.3182 63.2872 39.8713 63.4055C40.4242 63.5232 40.7768 64.0667 40.6591 64.6197L40.5087 65.3257C40.3916 65.876 39.8499 66.2319 39.2945 66.1135ZM40.1969 61.8773C39.644 61.7595 39.2914 61.2159 39.4091 60.6631L39.5595 59.957C39.6772 59.4041 40.2204 59.051 40.7737 59.1693C41.3266 59.287 41.6792 59.8304 41.5615 60.3835L41.4111 61.0895C41.2939 61.6398 40.7522 61.9957 40.1969 61.8773ZM41.3133 57.6637C40.6631 57.6637 40.1754 57.0649 40.3113 56.427L40.4616 55.7209C40.5793 55.1679 41.1225 54.8157 41.6758 54.933C42.2287 55.0509 42.5814 55.5943 42.4635 56.1472L42.3133 56.8533C42.211 57.3342 41.7861 57.6637 41.3133 57.6637ZM42.0014 53.4048C41.4485 53.2871 41.0959 52.7435 41.2137 52.1906L41.364 51.4846C41.4818 50.9318 42.0248 50.5792 42.5782 50.6968C43.1311 50.8145 43.4837 51.3581 43.366 51.911L43.2156 52.617C43.0985 53.1674 42.5568 53.5232 42.0014 53.4048Z" fill="#91CBF2"/>
<path d="M38.4718 69.9773C37.9189 69.8596 37.5662 69.3161 37.6839 68.7631L37.755 68.4294C37.8725 67.8768 38.4159 67.5248 38.969 67.6415C39.5219 67.7592 39.8747 68.3028 39.7569 68.8557L39.6858 69.1894C39.5691 69.738 39.0297 70.0953 38.4718 69.9773Z" fill="#91CBF2"/>
<path d="M52.6034 46.9199C52.0496 46.8068 51.6922 46.2663 51.8052 45.7124L51.8735 45.378C51.9865 44.8243 52.5273 44.4664 53.0808 44.5798C53.6347 44.6929 53.9921 45.2335 53.879 45.7873L53.8108 46.1217C53.6974 46.6772 53.1553 47.0328 52.6034 46.9199Z" fill="#91CBF2"/>
<path d="M48.6264 66.3985C48.0726 66.2855 47.7153 65.7449 47.8282 65.191L47.9607 64.5417C48.0738 63.988 48.6147 63.6304 49.1682 63.7436C49.7221 63.8566 50.0793 64.3972 49.9664 64.9511L49.8339 65.6004C49.7207 66.1549 49.1793 66.5115 48.6264 66.3985ZM49.4217 62.5029C48.8679 62.3898 48.5106 61.8492 48.6235 61.2954L48.756 60.6461C48.8691 60.0922 49.4095 59.7346 49.9635 59.8479C50.5174 59.961 50.8746 60.5016 50.7617 61.0554L50.6292 61.7047C50.516 62.2592 49.9747 62.6159 49.4217 62.5029ZM50.2171 58.6071C49.6633 58.494 49.306 57.9534 49.419 57.3996L49.5515 56.7503C49.6645 56.1964 50.2052 55.8388 50.759 55.9521C51.3128 56.0652 51.67 56.6058 51.5571 57.1596L51.4246 57.8089C51.3116 58.3633 50.77 58.7201 50.2171 58.6071ZM51.0127 54.7114C50.4589 54.5983 50.1016 54.0577 50.2145 53.5039L50.347 52.8546C50.4601 52.3008 51.0005 51.943 51.5545 52.0564C52.1084 52.1695 52.4656 52.7101 52.3527 53.2639L52.2202 53.9132C52.1069 54.4678 51.5656 54.8243 51.0127 54.7114ZM51.808 50.8156C51.2541 50.7025 50.8969 50.1619 51.0098 49.6081L51.1423 48.9588C51.2554 48.405 51.7961 48.0472 52.3498 48.1606C52.9037 48.2737 53.2609 48.8143 53.148 49.3681L53.0155 50.0174C52.9023 50.572 52.361 50.9287 51.808 50.8156Z" fill="#91CBF2"/>
<path d="M47.8951 69.9792C47.3413 69.866 46.9842 69.3253 47.0972 68.7714L47.1656 68.4371C47.2788 67.8834 47.8194 67.5259 48.3732 67.6393C48.9271 67.7525 49.2842 68.2932 49.1711 68.847L49.1027 69.1813C48.9898 69.7339 48.4502 70.0925 47.8951 69.9792Z" fill="#91CBF2"/>
<path d="M30.9561 12.2362C28.018 12.6622 25.446 14.2163 23.69 16.4437C19.2796 12.6308 12.3142 15.77 12.4107 21.6796C12.4032 21.6796 12.3959 21.6803 12.3884 21.6803C12.389 21.6973 12.3894 21.7142 12.3896 21.7312C7.56853 21.7695 3.67123 25.684 3.66289 30.5122C3.67109 35.376 7.61611 39.3164 12.4818 39.3164H12.6103C16.4703 42.5235 21.6697 43.3122 26.1939 41.5908C26.2008 41.5936 26.2079 41.5961 26.2149 41.5989C26.2259 41.5948 26.2372 41.5912 26.2481 41.5871C29.5937 42.9067 33.2607 43.4153 36.9313 42.9992C22.7953 39.4643 19.0662 20.9125 30.9561 12.2362Z" fill="#69BDE2"/>
<path d="M5.53 91V78.4H11.11C12.562 78.4 13.612 78.76 14.26 79.48C14.92 80.2 15.25 81.118 15.25 82.234C15.25 83.014 15.028 83.746 14.584 84.43C14.14 85.114 13.498 85.582 12.658 85.834L15.178 91H12.748L10.318 86.068H7.69V91H5.53ZM7.69 84.016H11.146C11.794 84.016 12.268 83.848 12.568 83.512C12.868 83.176 13.018 82.75 13.018 82.234C13.018 81.73 12.874 81.31 12.586 80.974C12.298 80.626 11.818 80.452 11.146 80.452H7.69V84.016ZM22.5587 91V90.262C21.9467 90.898 21.1307 91.216 20.1107 91.216C19.1267 91.216 18.3227 90.952 17.6987 90.424C17.0867 89.884 16.7807 89.128 16.7807 88.156C16.7807 87.16 17.1287 86.404 17.8247 85.888C18.5327 85.372 19.3847 85.114 20.3807 85.114C21.2567 85.114 21.9827 85.276 22.5587 85.6V85.114C22.5587 84.526 22.4087 84.1 22.1087 83.836C21.8207 83.572 21.3707 83.44 20.7587 83.44C19.7627 83.44 18.8507 83.728 18.0227 84.304L17.3747 82.594C18.3707 81.922 19.5707 81.586 20.9747 81.586C21.4547 81.586 21.8747 81.628 22.2347 81.712C22.6067 81.784 22.9847 81.934 23.3687 82.162C23.7647 82.39 24.0707 82.75 24.2867 83.242C24.5027 83.734 24.6107 84.346 24.6107 85.078V91H22.5587ZM20.5067 89.362C21.3107 89.362 21.9947 89.068 22.5587 88.48V87.292C22.0307 87.04 21.4187 86.914 20.7227 86.914C20.1587 86.914 19.7027 87.016 19.3547 87.22C19.0067 87.424 18.8327 87.736 18.8327 88.156C18.8327 88.528 18.9767 88.822 19.2647 89.038C19.5527 89.254 19.9667 89.362 20.5067 89.362ZM29.0913 80.182C28.8513 80.422 28.5573 80.542 28.2093 80.542C27.8613 80.542 27.5613 80.422 27.3093 80.182C27.0693 79.93 26.9493 79.63 26.9493 79.282C26.9493 78.934 27.0693 78.64 27.3093 78.4C27.5613 78.16 27.8613 78.04 28.2093 78.04C28.5573 78.04 28.8513 78.16 29.0913 78.4C29.3313 78.64 29.4513 78.934 29.4513 79.282C29.4513 79.63 29.3313 79.93 29.0913 80.182ZM27.1473 91V81.802H29.2533V91H27.1473ZM37.6513 91V85.726C37.6513 84.298 37.0813 83.584 35.9413 83.584C34.6933 83.584 34.0693 84.286 34.0693 85.69V91H31.9633V81.802H34.0693V82.666C34.6693 81.946 35.4793 81.586 36.4993 81.586C37.4593 81.586 38.2393 81.886 38.8393 82.486C39.4513 83.086 39.7573 84.04 39.7573 85.348V91H37.6513ZM43.3278 94.492L44.7498 90.856L41.2938 81.802H43.4178L45.5598 87.454C45.6678 87.718 45.7578 87.994 45.8298 88.282C45.8898 88.018 45.9738 87.742 46.0818 87.454L48.2418 81.802H50.3658L45.5058 94.492H43.3278Z" fill="white"/>
</svg>
