<svg width="70" height="98" viewBox="0 0 70 98" fill="none" xmlns="http://www.w3.org/2000/svg">
<path d="M34.9997 56.8108C46.7512 56.8108 56.2777 47.0454 56.2777 34.9993C56.2777 22.9531 46.7512 13.1877 34.9997 13.1877C23.2483 13.1877 13.7218 22.9531 13.7218 34.9993C13.7218 47.0454 23.2483 56.8108 34.9997 56.8108Z" fill="#FFB829"/>
<path d="M42.7862 70L35.0002 56.8729L27.2138 69.9995L25.7445 54.7075L13.1699 63.0497L18.3152 48.6349L3.44661 50.5824L14.1968 39.8711L0 34.9992L14.1978 30.1279L3.4471 19.4166L18.3157 21.3641L13.1704 6.94878L25.745 15.292L27.2138 0L35.0002 13.1265L42.7862 0L44.2555 15.292L56.8301 6.9498L51.6843 21.3641L66.5529 19.4171L55.8022 30.1279L70 34.9992L55.8022 39.8711L66.5529 50.5829L51.6843 48.6349L56.8296 63.0507L44.2555 54.7075L42.7862 70ZM29.2927 47.1611L30.1973 56.5802L34.9998 48.4832L39.8022 56.5797L40.7068 47.1611L48.4681 52.31L45.2888 43.4036L54.4513 44.6034L47.8323 38.009L56.6027 34.9992L47.8323 31.99L54.4513 25.3956L45.2888 26.5954L48.4681 17.689L40.7073 22.8384L39.8027 13.4198L35.0002 21.5163L30.1978 13.4198L29.2932 22.8384L21.5319 17.689L24.7112 26.5954L15.5487 25.3956L22.1677 31.99L13.3968 34.9992L22.1677 38.009L15.5487 44.6029L24.7107 43.4036L21.5319 52.31L29.2927 47.1611Z" fill="#FDDD66"/>
<path d="M35.0002 52.2661C44.3031 52.2661 51.8446 44.5355 51.8446 34.9993C51.8446 25.4632 44.3031 17.7325 35.0002 17.7325C25.6973 17.7325 18.1558 25.4632 18.1558 34.9993C18.1558 44.5355 25.6973 52.2661 35.0002 52.2661Z" fill="#FFB829"/>
<path d="M14.562 89.7696C13.41 89.7696 12.414 89.4816 11.574 88.9056C10.746 88.3176 10.158 87.5196 9.80998 86.5116L11.808 85.7736C12.072 86.3616 12.45 86.8356 12.942 87.1956C13.434 87.5436 13.998 87.7176 14.634 87.7176C15.294 87.7176 15.816 87.5676 16.2 87.2676C16.596 86.9676 16.794 86.5356 16.794 85.9716C16.794 85.7436 16.74 85.5336 16.632 85.3416C16.524 85.1376 16.398 84.9696 16.254 84.8376C16.122 84.7056 15.918 84.5736 15.642 84.4416C15.366 84.3096 15.132 84.2076 14.94 84.1356C14.748 84.0516 14.466 83.9496 14.094 83.8296C13.614 83.6616 13.242 83.5296 12.978 83.4336C12.726 83.3376 12.396 83.1816 11.988 82.9656C11.592 82.7376 11.286 82.5096 11.07 82.2816C10.866 82.0536 10.68 81.7536 10.512 81.3816C10.356 80.9976 10.278 80.5776 10.278 80.1216C10.278 79.1616 10.65 78.3576 11.394 77.7096C12.138 77.0616 13.146 76.7376 14.418 76.7376C15.474 76.7376 16.35 76.9896 17.046 77.4936C17.742 77.9856 18.21 78.6336 18.45 79.4376L16.506 80.0856C16.122 79.2216 15.378 78.7896 14.274 78.7896C13.71 78.7896 13.266 78.9096 12.942 79.1496C12.63 79.3776 12.474 79.7076 12.474 80.1396C12.474 80.4276 12.594 80.6856 12.834 80.9136C13.086 81.1416 13.35 81.3156 13.626 81.4356C13.914 81.5436 14.334 81.6876 14.886 81.8676C15.246 81.9996 15.516 82.1016 15.696 82.1736C15.888 82.2336 16.152 82.3416 16.488 82.4976C16.824 82.6536 17.088 82.7976 17.28 82.9296C17.472 83.0496 17.688 83.2176 17.928 83.4336C18.18 83.6496 18.372 83.8776 18.504 84.1176C18.636 84.3456 18.75 84.6216 18.846 84.9456C18.942 85.2576 18.99 85.5996 18.99 85.9716C18.99 87.1476 18.57 88.0776 17.73 88.7616C16.902 89.4336 15.846 89.7696 14.562 89.7696ZM26.9343 89.5536V88.6716C26.3583 89.4036 25.5543 89.7696 24.5223 89.7696C23.5623 89.7696 22.7763 89.4696 22.1643 88.8696C21.5523 88.2576 21.2463 87.2976 21.2463 85.9896V80.3556H23.3523V85.6116C23.3523 87.0396 23.9283 87.7536 25.0803 87.7536C26.3163 87.7536 26.9343 87.0516 26.9343 85.6476V80.3556H29.0403V89.5536H26.9343ZM37.4306 89.5536V84.2796C37.4306 82.8516 36.8606 82.1376 35.7206 82.1376C34.4726 82.1376 33.8486 82.8396 33.8486 84.2436V89.5536H31.7426V80.3556H33.8486V81.2196C34.4486 80.4996 35.2586 80.1396 36.2786 80.1396C37.2386 80.1396 38.0186 80.4396 38.6186 81.0396C39.2306 81.6396 39.5366 82.5936 39.5366 83.9016V89.5536H37.4306ZM47.8368 89.5536V84.2796C47.8368 82.8516 47.2668 82.1376 46.1268 82.1376C44.8788 82.1376 44.2548 82.8396 44.2548 84.2436V89.5536H42.1488V80.3556H44.2548V81.2196C44.8548 80.4996 45.6648 80.1396 46.6848 80.1396C47.6448 80.1396 48.4248 80.4396 49.0248 81.0396C49.6368 81.6396 49.9428 82.5936 49.9428 83.9016V89.5536H47.8368ZM53.5133 93.0456L54.9353 89.4096L51.4793 80.3556H53.6033L55.7453 86.0076C55.8533 86.2716 55.9433 86.5476 56.0153 86.8356C56.0753 86.5716 56.1593 86.2956 56.2673 86.0076L58.4273 80.3556H60.5513L55.6913 93.0456H53.5133Z" fill="white"/>
</svg>
