<svg width="121" height="98" viewBox="0 0 121 98" fill="none" xmlns="http://www.w3.org/2000/svg">
<g clip-path="url(#clip0)">
<path d="M26.9042 56.1096C26.6377 56.1096 26.3712 56.0076 26.1682 55.8047C25.7618 55.3983 25.7618 54.7392 26.1682 54.3328L44.519 35.9821C44.9254 35.5756 45.5844 35.5756 45.9909 35.9821C46.3973 36.3885 46.3973 37.0475 45.9909 37.4534L27.6396 55.8047C27.4366 56.0076 27.1701 56.1096 26.9042 56.1096V56.1096Z" fill="#A0ECFF"/>
<path d="M29.1525 49.2796C28.8866 49.2796 28.6201 49.1781 28.4171 48.9752C28.0102 48.5688 28.0102 47.9097 28.4171 47.5033L30.7627 45.1572C31.1691 44.7513 31.8282 44.7513 32.2346 45.1572C32.641 45.5636 32.641 46.2226 32.2346 46.6291L29.8885 48.9752C29.6855 49.1781 29.419 49.2796 29.1525 49.2796Z" fill="#A0ECFF"/>
<path d="M33.7508 59.8422C33.4843 59.8422 33.2178 59.7407 33.0149 59.5378C32.6084 59.1314 32.6084 58.4724 33.0149 58.0659L35.3604 55.7203C35.7669 55.3139 36.4259 55.3139 36.8323 55.7203C37.2387 56.1268 37.2387 56.7858 36.8323 57.1917L34.4867 59.5378C34.2832 59.7407 34.0173 59.8422 33.7508 59.8422V59.8422Z" fill="#A0ECFF"/>
<path d="M73.9749 56.1096C73.7085 56.1096 73.442 56.0076 73.239 55.8047C72.8326 55.3983 72.8326 54.7392 73.239 54.3328L91.5898 35.9821C91.9962 35.5756 92.6552 35.5756 93.0616 35.9821C93.4681 36.3885 93.4681 37.0475 93.0616 37.4534L74.7109 55.8047C74.5074 56.0076 74.2409 56.1096 73.9749 56.1096Z" fill="#A0ECFF"/>
<path d="M60.7992 50.1352L38.5979 64.9916C37.9688 65.413 37.3044 65.1908 36.9391 64.7326C36.5824 64.284 36.5092 63.61 37.0331 63.0861L47.968 52.1512H40.6984C39.5955 52.1512 39.0417 50.8166 39.8225 50.0364L51.52 38.34H61.9667L52.4396 47.8665H60.1103C61.3349 47.8665 61.8166 49.4537 60.7992 50.1352Z" fill="#F6CB43"/>
<path d="M60.7992 50.1352L38.5979 64.9916C37.9688 65.413 37.3044 65.1908 36.9391 64.7326L55.3043 50.0551H48.0198C46.9159 50.0551 46.3631 48.7205 47.1434 47.9397L56.7425 38.3395H61.9667L52.4391 47.8665H60.1103C61.3349 47.8665 61.8166 49.4538 60.7992 50.1352V50.1352Z" fill="#FAB03C"/>
<path d="M67.9406 53.8715C67.6747 53.8715 67.4082 53.77 67.2047 53.567C66.7983 53.1606 66.7983 52.5016 67.2047 52.0952L75.3277 43.9722C75.7341 43.5658 76.3932 43.5658 76.7996 43.9722C77.206 44.3786 77.206 45.0376 76.7996 45.444L68.6765 53.567C68.4731 53.77 68.2071 53.8715 67.9406 53.8715Z" fill="#A0ECFF"/>
<path d="M61.8423 59.9704C61.5763 59.9704 61.3098 59.8684 61.1063 59.6655C60.6999 59.2591 60.6999 58.6001 61.1063 58.1936L63.7077 55.5928C64.1141 55.1864 64.7726 55.1864 65.179 55.5928C65.5855 55.9992 65.5855 56.6577 65.179 57.0646L62.5782 59.6655C62.3752 59.8684 62.1088 59.9704 61.8423 59.9704V59.9704Z" fill="#A0ECFF"/>
<path d="M64.7224 46.934C64.4559 46.934 64.19 46.832 63.9865 46.6291C63.5801 46.2227 63.5801 45.5636 63.9865 45.1572L72.0075 37.1367C72.4139 36.7303 73.0729 36.7303 73.4793 37.1367C73.8852 37.5431 73.8852 38.2016 73.4793 38.6081L65.4583 46.6291C65.2549 46.832 64.9884 46.934 64.7224 46.934Z" fill="#A0ECFF"/>
<path d="M86.6738 21.7564C86.1055 12.364 78.3094 4.92188 68.7738 4.92188C61.0833 4.92188 54.5246 9.76258 51.976 16.5633C45.3532 16.6434 40.0089 22.0336 40.0089 28.6752C40.0089 35.3664 45.4333 40.7908 52.1245 40.7908H86.3416C91.5999 40.7908 95.8628 36.528 95.8628 31.2696C95.8628 26.1224 91.7783 21.9316 86.6738 21.7564V21.7564Z" fill="#6D6D6D"/>
<path d="M95.8633 31.269C95.8633 36.5274 91.5994 40.7913 86.341 40.7913H85.6035C86.2935 39.4732 86.6844 37.9725 86.6844 36.3821C86.6844 31.2349 82.6 27.0441 77.4954 26.8684C76.9272 17.4765 69.131 10.0338 59.5949 10.0338C58.3089 10.0338 57.0555 10.1689 55.8474 10.4264C59.1094 7.03349 63.6943 4.92236 68.7737 4.92236C78.3093 4.92236 86.1061 12.3634 86.6743 21.7569C91.7788 21.931 95.8633 26.1223 95.8633 31.269Z" fill="#565656"/>
<path d="M81.9265 20.723C81.4565 20.723 81.0304 20.402 80.9155 19.9251C80.75 19.2362 80.5235 18.5569 80.2421 17.9064C80.0135 17.3793 80.256 16.7667 80.7836 16.5381C81.3107 16.3095 81.9233 16.5525 82.1519 17.0797C82.4809 17.8396 82.7458 18.6332 82.9391 19.4386C83.0731 19.9978 82.7292 20.559 82.1706 20.6936C82.0889 20.7134 82.0072 20.723 81.9265 20.723V20.723Z" fill="#6D6D6D"/>
<path d="M78.5385 14.5381C78.2651 14.5381 77.9916 14.4313 77.7876 14.2182C75.4046 11.7354 72.2035 10.3682 68.7738 10.3682C68.1991 10.3682 67.7334 9.90198 67.7334 9.32733C67.7334 8.75269 68.1991 8.28699 68.7738 8.28699C72.7755 8.28699 76.5101 9.88168 79.2888 12.7768C79.6872 13.1918 79.6734 13.8503 79.2589 14.2481C79.0571 14.442 78.7975 14.5381 78.5385 14.5381V14.5381Z" fill="#6D6D6D"/>
<path d="M37.3995 27.183C37.8059 20.4677 43.3793 15.1475 50.1966 15.1475C55.6947 15.1475 60.3837 18.6087 62.2059 23.4702C66.9403 23.5274 70.761 27.3811 70.761 32.1294C70.761 36.913 66.8832 40.7908 62.0996 40.7908C60.0969 40.7908 39.6948 40.7908 37.6371 40.7908C33.8779 40.7908 30.83 37.7435 30.83 33.9837C30.83 30.304 33.7502 27.3085 37.3995 27.183V27.183Z" fill="#A09D9C"/>
<path d="M70.7615 32.1299C70.7615 36.8724 66.9478 40.7245 62.2188 40.7891C63.6367 39.2462 64.5013 37.1907 64.5013 34.9316C64.5013 30.1843 60.6812 26.3301 55.9452 26.2724C54.123 21.4114 49.4345 17.9496 43.9358 17.9496C43.2864 17.9496 42.6482 17.9988 42.0239 18.0917C44.2424 16.2529 47.0894 15.1479 50.196 15.1479C55.6947 15.1479 60.3832 18.6081 62.2054 23.4707C66.9409 23.5279 70.7615 27.3805 70.7615 32.1299V32.1299Z" fill="#82807F"/>
<path d="M70.769 59.9704C70.7669 59.9704 70.7652 59.9704 70.7636 59.9704H70.7492C70.1746 59.9672 69.711 59.4994 69.7137 58.9247C69.7164 58.3517 70.1815 57.8887 70.754 57.8887H70.7594H70.7738C71.3484 57.8919 71.812 58.3597 71.8093 58.9344C71.8067 59.5074 71.341 59.9704 70.769 59.9704V59.9704Z" fill="#A0ECFF"/>
<path d="M83.1576 52.9165C83.156 52.9165 83.1544 52.9165 83.1528 52.9165H83.1383C82.5637 52.9139 82.0996 52.4455 82.1023 51.8709C82.1049 51.2978 82.5706 50.8353 83.1432 50.8353H83.148H83.1624C83.737 50.838 84.2011 51.3058 84.1985 51.8805C84.1953 52.4535 83.7301 52.9165 83.1576 52.9165V52.9165Z" fill="#A0ECFF"/>
<path d="M31.2284 62.4036H31.214C30.6393 62.4036 30.1731 61.9374 30.1731 61.3627C30.1731 60.7881 30.6393 60.3224 31.214 60.3224H31.2284C31.8031 60.3224 32.2688 60.7881 32.2688 61.3627C32.2688 61.9379 31.8031 62.4036 31.2284 62.4036Z" fill="#A0ECFF"/>
</g>
<path d="M6.462 79.47V90H4.302V79.47H0.72V77.4H10.044V79.47H6.462ZM12.1078 90V77.976L14.2138 77.004V81.666C14.8138 80.946 15.6238 80.586 16.6438 80.586C17.6038 80.586 18.3838 80.886 18.9838 81.486C19.5958 82.086 19.9018 83.04 19.9018 84.348V90H17.7958V84.69C17.7958 83.286 17.2258 82.584 16.0858 82.584C14.8378 82.584 14.2138 83.274 14.2138 84.654V90H12.1078ZM28.1121 90V89.118C27.5361 89.85 26.7321 90.216 25.7001 90.216C24.7401 90.216 23.9541 89.916 23.3421 89.316C22.7301 88.704 22.4241 87.744 22.4241 86.436V80.802H24.5301V86.058C24.5301 87.486 25.1061 88.2 26.2581 88.2C27.4941 88.2 28.1121 87.498 28.1121 86.094V80.802H30.2181V90H28.1121ZM38.6083 90V84.726C38.6083 83.298 38.0383 82.584 36.8983 82.584C35.6503 82.584 35.0263 83.286 35.0263 84.69V90H32.9203V80.802H35.0263V81.666C35.6263 80.946 36.4363 80.586 37.4563 80.586C38.4163 80.586 39.1963 80.886 39.7963 81.486C40.4083 82.086 40.7143 83.04 40.7143 84.348V90H38.6083ZM46.6926 90.216C45.5166 90.216 44.5866 89.79 43.9026 88.938C43.2186 88.086 42.8766 86.904 42.8766 85.392C42.8766 83.916 43.2306 82.746 43.9386 81.882C44.6466 81.018 45.5646 80.586 46.6926 80.586C47.5806 80.586 48.2706 80.874 48.7626 81.45V77.958L50.8686 77.004V90H48.7626V89.334C48.3066 89.922 47.6166 90.216 46.6926 90.216ZM47.0166 88.2C47.7966 88.2 48.3786 87.906 48.7626 87.318V83.466C48.3666 82.878 47.7846 82.584 47.0166 82.584C46.3686 82.584 45.8646 82.83 45.5046 83.322C45.1566 83.802 44.9826 84.492 44.9826 85.392C44.9826 86.244 45.1626 86.928 45.5226 87.444C45.8826 87.948 46.3806 88.2 47.0166 88.2ZM57.3726 90.216C56.0646 90.216 55.0266 89.79 54.2586 88.938C53.5026 88.074 53.1246 86.892 53.1246 85.392C53.1246 83.904 53.5086 82.734 54.2766 81.882C55.0446 81.018 56.0766 80.586 57.3726 80.586C58.5486 80.586 59.5086 80.952 60.2526 81.684C61.0086 82.416 61.3866 83.49 61.3866 84.906C61.3866 85.398 61.3626 85.83 61.3146 86.202H55.2126C55.2486 86.85 55.4706 87.372 55.8786 87.768C56.2986 88.164 56.7966 88.362 57.3726 88.362C58.1886 88.362 58.8366 88.044 59.3166 87.408L60.6486 88.776C59.8446 89.736 58.7526 90.216 57.3726 90.216ZM55.2306 84.456H59.2986C59.2506 83.796 59.0466 83.298 58.6866 82.962C58.3266 82.614 57.8886 82.44 57.3726 82.44C56.7726 82.44 56.2746 82.608 55.8786 82.944C55.4946 83.268 55.2786 83.772 55.2306 84.456ZM63.5414 90V80.802H65.6474V81.756C66.0194 80.976 66.6494 80.586 67.5374 80.586C68.1854 80.586 68.7554 80.796 69.2474 81.216L68.9414 83.142C68.4854 82.818 67.9634 82.656 67.3754 82.656C66.8954 82.656 66.4874 82.824 66.1514 83.16C65.8154 83.496 65.6474 84.06 65.6474 84.852V90H63.5414ZM75.0132 90.216C73.8612 90.216 72.8652 89.928 72.0252 89.352C71.1972 88.764 70.6092 87.966 70.2612 86.958L72.2592 86.22C72.5232 86.808 72.9012 87.282 73.3932 87.642C73.8852 87.99 74.4492 88.164 75.0852 88.164C75.7452 88.164 76.2672 88.014 76.6512 87.714C77.0472 87.414 77.2452 86.982 77.2452 86.418C77.2452 86.19 77.1912 85.98 77.0832 85.788C76.9752 85.584 76.8492 85.416 76.7052 85.284C76.5732 85.152 76.3692 85.02 76.0932 84.888C75.8172 84.756 75.5832 84.654 75.3912 84.582C75.1992 84.498 74.9172 84.396 74.5452 84.276C74.0652 84.108 73.6932 83.976 73.4292 83.88C73.1772 83.784 72.8472 83.628 72.4392 83.412C72.0432 83.184 71.7372 82.956 71.5212 82.728C71.3172 82.5 71.1312 82.2 70.9632 81.828C70.8072 81.444 70.7292 81.024 70.7292 80.568C70.7292 79.608 71.1012 78.804 71.8452 78.156C72.5892 77.508 73.5972 77.184 74.8692 77.184C75.9252 77.184 76.8012 77.436 77.4972 77.94C78.1932 78.432 78.6612 79.08 78.9012 79.884L76.9572 80.532C76.5732 79.668 75.8292 79.236 74.7252 79.236C74.1612 79.236 73.7172 79.356 73.3932 79.596C73.0812 79.824 72.9252 80.154 72.9252 80.586C72.9252 80.874 73.0452 81.132 73.2852 81.36C73.5372 81.588 73.8012 81.762 74.0772 81.882C74.3652 81.99 74.7852 82.134 75.3372 82.314C75.6972 82.446 75.9672 82.548 76.1472 82.62C76.3392 82.68 76.6032 82.788 76.9392 82.944C77.2752 83.1 77.5392 83.244 77.7312 83.376C77.9232 83.496 78.1392 83.664 78.3792 83.88C78.6312 84.096 78.8232 84.324 78.9552 84.564C79.0872 84.792 79.2012 85.068 79.2972 85.392C79.3932 85.704 79.4412 86.046 79.4412 86.418C79.4412 87.594 79.0212 88.524 78.1812 89.208C77.3532 89.88 76.2972 90.216 75.0132 90.216ZM84.4875 90.216C83.0595 90.216 82.3455 89.43 82.3455 87.858V82.638H80.9775V80.802H82.3455V78.012L84.4515 77.004V80.802H86.5755V82.638H84.4515V87.444C84.4515 88.032 84.7095 88.326 85.2255 88.326C85.6935 88.326 86.1735 88.188 86.6655 87.912L86.4135 89.802C85.8855 90.078 85.2435 90.216 84.4875 90.216ZM92.3522 90.216C91.0562 90.216 90.0302 89.79 89.2742 88.938C88.5182 88.086 88.1402 86.91 88.1402 85.41C88.1402 83.91 88.5182 82.734 89.2742 81.882C90.0302 81.018 91.0562 80.586 92.3522 80.586C93.6482 80.586 94.6742 81.018 95.4302 81.882C96.1982 82.734 96.5822 83.91 96.5822 85.41C96.5822 86.91 96.2042 88.086 95.4482 88.938C94.6922 89.79 93.6602 90.216 92.3522 90.216ZM92.3522 88.2C93.0122 88.2 93.5282 87.954 93.9002 87.462C94.2842 86.97 94.4762 86.286 94.4762 85.41C94.4762 84.534 94.2842 83.844 93.9002 83.34C93.5282 82.836 93.0122 82.584 92.3522 82.584C91.7162 82.584 91.2062 82.842 90.8222 83.358C90.4382 83.862 90.2462 84.546 90.2462 85.41C90.2462 86.274 90.4322 86.958 90.8042 87.462C91.1882 87.954 91.7042 88.2 92.3522 88.2ZM98.8383 90V80.802H100.944V81.756C101.316 80.976 101.946 80.586 102.834 80.586C103.482 80.586 104.052 80.796 104.544 81.216L104.238 83.142C103.782 82.818 103.26 82.656 102.672 82.656C102.192 82.656 101.784 82.824 101.448 83.16C101.112 83.496 100.944 84.06 100.944 84.852V90H98.8383ZM116.898 90V84.726C116.898 83.298 116.376 82.584 115.332 82.584C114.792 82.584 114.366 82.77 114.054 83.142C113.754 83.502 113.604 84.042 113.604 84.762V90H111.498V84.726C111.498 83.298 110.976 82.584 109.932 82.584C109.392 82.584 108.966 82.77 108.654 83.142C108.354 83.502 108.204 84.042 108.204 84.762V90H106.098V80.802H108.204V81.648C108.732 80.94 109.482 80.586 110.454 80.586C111.582 80.586 112.386 81.018 112.866 81.882C113.454 81.018 114.378 80.586 115.638 80.586C116.67 80.586 117.486 80.874 118.086 81.45C118.698 82.014 119.004 82.908 119.004 84.132V90H116.898Z" fill="white"/>
<defs>
<clipPath id="clip0">
<rect width="70" height="70" fill="white" transform="translate(26)"/>
</clipPath>
</defs>
</svg>
